# xmcd
#
# Track frame offsets: 
#        150
#        17179
#        41175
#        60560
#        77777
#        101648
#        119584
#        140362
#        164485
#        190968
#
# Disc length: 2813 seconds
#
# Revision: 0
# Processed by: cddbd v1.5.2PL0 Copyright (c) Steve Scherf et al.
# Submitted via: ExactAudioCopy v1.2
#
DISCID=8d0afb0a
DTITLE=Revolting Cocks - Sex-o Mixxx-o
DYEAR=2009
DGENRE=Industrial
TTITLE0=Hookerbot3000 (Tweaker Mix)
TTITLE1=Keys To The City (Invincible Mix)
TTITLE2=Red Parrot (Juarez Tunnel Mix)
TTITLE3=Robo Bandidos (A Chilling Effect Mix)
TTITLE4=Cousins (Sexy Problems =Sexy Solutions Mix)
TTITLE5=Touch Screen (Shower Strangulation Mix)
TTITLE6=I'm Not Gay (I'm So Gay Club Mix)
TTITLE7=Abundant Redundancy (Clockworks And Cold Steel Mix)
TTITLE8=Lewd Ferrigno (Club On Mix)
TTITLE9=Wizard Of Sextown (Bisected Banshee Mix)
EXTD=
EXTT0=
EXTT1=
EXTT2=
EXTT3=
EXTT4=
EXTT5=
EXTT6=
EXTT7=
EXTT8=
EXTT9=
PLAYORDER=
